PathFileType	4	(X/Y/Z)	Patient4_TMGait_0pt3_03_left_10.trc.trc
DataRate	CameraRate	NumFrames	NumMarkers	Units	OrigDataRate	OrigDataStartFrame	OrigNumFrames
52.044609665428	52.044609665428	4	33	mm	52.044609665428	1	       141
Frame#	Time	Sacral			L.Shoulder			Chest			R.Shoulder			Neck			R.ASIS			L.ASIS			R.Thigh.Superior			R.Thigh.Lateral			R.Thigh.Inferior			R.Patella			L.Thigh.Superior			L.Thigh.Lateral			L.Thigh.Inferior			L.Patella			L.Shank.Superior			L.Shank.Lateral			L.Shank.Inferior			R.Shank.Superior			R.Shank.Lateral			R.Shank.Inferior			R.Heel			R.Midfoot.Superior			R.Midfoot.Lateral			R.Toe			L.Heel			L.Midfoot.Lateral			L.Midfoot.Superior			L.Toe			L.Elbow			L.Wrist			R.Elbow			R.Wrist			
		X1	Y1	Z1	X2	Y2	Z2	X3	Y3	Z3	X4	Y4	Z4	X5	Y5	Z5	X6	Y6	Z6	X7	Y7	Z7	X8	Y8	Z8	X9	Y9	Z9	X10	Y10	Z10	X11	Y11	Z11	X12	Y12	Z12	X13	Y13	Z13	X14	Y14	Z14	X15	Y15	Z15	X16	Y16	Z16	X17	Y17	Z17	X18	Y18	Z18	X19	Y19	Z19	X20	Y20	Z20	X21	Y21	Z21	X22	Y22	Z22	X23	Y23	Z23	X24	Y24	Z24	X25	Y25	Z25	X26	Y26	Z26	X27	Y27	Z27	X28	Y28	Z28	X29	Y29	Z29	X30	Y30	Z30	X31	Y31	Z31	X32	Y32	Z32	X33	Y33	Z33	

1	17.940000000000	811.110293767946	999.278915611648	549.602119318564	1004.297940992283	1428.715116948056	377.407276565310	1097.610656176048	1355.405171003068	542.118814037775	1008.462932243626	1428.256241214101	712.694390490213	977.544963671850	1488.337382918013	535.691472115939	1041.295482903898	932.623613063317	667.110714743940	1026.543794157832	955.456517631732	395.161414822079	1093.639206257167	737.679867127133	625.780560286304	1019.428991227147	620.713017430834	677.588208278733	1098.353713919438	576.072843771800	593.203618586493	1104.512974050077	481.622946543666	595.296821804116	1097.245467546644	757.616078083629	421.687096655811	1040.252251957347	634.432359050433	343.994753578195	1134.340542176287	562.027019533592	410.224840878614	1135.514278659942	471.090429987478	400.069722330860	1061.437266894472	413.604120663397	389.029163164941	917.176729127450	388.793946172556	336.970291530017	889.192607673888	259.742716278578	386.488978451134	1062.693044413959	394.916318346244	599.092254713195	983.408029869876	297.415679607451	661.982377952061	1008.472437206440	201.285497186205	593.019361129139	854.994149713677	46.011946889345	567.865927406830	1028.221720983960	96.557474705738	597.815225523633	940.658775333609	38.260965201466	638.988315450672	1148.393696574977	41.030832157223	622.106864471738	692.963338201727	217.729683065220	419.808969378869	746.041600606210	167.175784738011	339.217971667697	850.993186089347	160.144188535678	362.208775807747	914.022315520649	40.218093323218	331.737950566239	1031.148856688067	1075.729854498247	260.823177847843	1198.058352138923	871.793034898621	253.347699041645	969.019158326366	1083.822228358448	841.017648813978	1102.004085997970	860.638518444620	878.069483139566	
2	17.959214285714	809.445647716290	996.644873531835	553.359099297631	1000.499389254770	1425.759465306305	378.168989072055	1096.065618742933	1353.005964702830	541.778554974687	1009.415443996366	1426.282950400361	713.450897756759	976.138015197253	1485.991491002330	536.498451396755	1041.348694652911	930.397635310777	668.496791349169	1023.464285817209	953.764708797665	396.641935901583	1094.500286570871	736.127283963396	626.151393812773	1021.405483938658	618.394523745980	677.815892331681	1100.253262515491	574.512047089448	592.878725430930	1106.491251536444	479.310271915176	594.638751874287	1097.863448202124	759.497073122602	423.118389108585	1044.588255527821	635.624265564538	344.825561572569	1140.587288679995	565.545089813754	411.130658124816	1144.108760958769	474.404381004751	400.291799573745	1070.515025696641	415.656625386568	389.076953220673	925.745912480188	389.624151696688	338.681267129263	900.063763731260	259.790696332127	387.129760972118	1063.113042634736	392.674371975575	598.602758530754	982.242712387479	296.551914024675	661.778483898967	1005.115835600238	200.217887276253	592.737861582694	849.222849862700	46.352591831898	567.810065161393	1022.622689560956	96.618979830643	597.866925378388	934.831282029585	38.387224989041	638.939282683653	1142.571885974414	40.769804290982	622.179294501397	704.621617142748	213.739424246184	422.776901636573	757.473296145583	166.090416064334	340.437012886582	862.861842547949	160.933712698033	361.914813862903	927.832783581494	43.017283276021	327.878623029269	1017.028802648048	1071.566148559009	263.910251013851	1164.281068348390	857.057741858312	255.332898751916	980.043213420952	1081.369890707552	842.611653150871	1125.979512844949	868.013942823340	877.070184061104	
3	17.978428571429	807.770686783779	994.000812150425	557.167626144087	996.553024308567	1422.793917605397	378.899758096921	1094.456585540659	1350.588451248133	541.337783701301	1010.404628363128	1424.279983969691	714.151236276988	974.682559314848	1483.635709189118	537.253192219789	1041.376723755092	928.152447164072	669.809102804647	1020.259568517468	952.038282200274	398.065825569873	1095.200926030201	734.494430454770	626.423405519502	1023.203496222877	616.043293903789	678.007154591102	1101.882607030813	572.875027934781	592.451244553799	1108.170453104819	476.952370545048	593.872361492275	1098.372645523621	761.398177759021	424.430296281883	1048.753705487323	636.837924676155	345.567756759869	1146.691666180253	569.124243941290	411.859642644523	1152.602143043897	477.851547145050	400.368572418439	1079.664283374222	417.750173849367	388.988307163503	934.483123036369	390.060051974133	340.217416757578	911.480892771716	259.384315190602	387.580510834623	1063.253359636478	390.385715303282	598.032994843580	980.864619962483	295.622107132788	661.527716866946	1001.551367071401	199.093857164610	592.417351157910	843.285426390373	46.618813714256	567.765560361760	1016.804234926598	96.628960688286	597.854870213817	928.840538633768	38.482463606688	638.902671863439	1136.589972014273	40.535468465967	622.247272924358	717.036086258057	208.777667796758	425.473721732210	769.746174926622	164.106897883796	341.438402993432	875.547623484012	161.126745401939	361.443296105880	942.741281245688	45.415415022954	323.936268684161	1002.332855299344	1067.533964408018	266.890442759383	1129.716418713547	842.834733484443	257.454770640847	991.466702297713	1078.969320975439	844.097625829557	1150.537916590447	876.010300022239	875.728923665095	
4	17.997642857143	806.123725638406	991.466890405314	560.923947208730	992.503903821744	1419.946190388262	379.558925718661	1092.805192654507	1348.253597866632	540.745821131848	1011.435427468056	1422.331404996364	714.730015309058	973.202298643768	1481.371041219506	537.906051298203	1041.362300703019	925.977496342032	670.953824094769	1016.959147082582	950.347505514995	399.348661126380	1095.622140983828	732.814316394112	626.538233023504	1024.649026418701	613.744549251794	678.140622649928	1103.025090607381	571.195801113854	591.893636125729	1109.311315960987	474.624234250644	592.983196840857	1098.670452402056	763.281088178925	425.525049448657	1052.493341215650	638.057198633202	346.160302735343	1152.334541337350	572.678801078024	412.316574035199	1160.620754925615	481.396359367926	400.239405237034	1088.594322503932	419.856258322633	388.703564662633	943.207797356566	389.888497586132	341.438787514780	923.402601490717	258.337057330660	387.724146646399	1062.939110581561	388.126834343608	597.374775885914	979.181962556836	294.641928085113	661.225103462038	997.767734312491	197.940796111050	592.058197509021	837.275404032975	46.779393475703	567.739650532953	1010.841816844982	96.575772999948	597.765849382123	922.783214612924	38.534102294604	638.886753682855	1130.545059351576	40.345687081383	622.306593783593	730.299162875737	202.520102480235	427.667969743555	782.999709792708	160.865870135781	342.069381104910	889.137997453682	160.462269117708	360.711447152387	958.910221493180	47.219218486635	319.985385484487	987.215532264199	1063.887900690638	269.635192713115	1095.063289156765	829.878511744583	259.727267041056	1003.159925832603	1076.786063452489	845.368353303959	1175.196584862886	884.786250773663	873.884704485870	
